<svg xmlns="http://www.w3.org/2000/svg" width="1024" height="1024">
  <defs>
    <linearGradient id="b" x1="0" x2="0" y1="0" y2="1" spreadMethod="pad">
      <stop offset="0" stop-color="#3d3d3d"/>
      <stop offset=".7" stop-color="#111"/>
      <stop offset="1"/>
    </linearGradient>
    <filter id="a">
      <feGaussianBlur stdDeviation="12"/>
    </filter>
  </defs>
  <path fill="rgba(0,0,0,0.3)" d="M924 365.41c0-9.78 0-18.35-.06-28.13-.05-8.24-.14-16.48-.36-24.72-.49-17.95-1.55-36.06-4.74-53.81-3.24-18.01-8.53-34.77-16.86-51.13a171.96 171.96 0 0 0-31.66-43.56 172.06 172.06 0 0 0-43.57-31.64c-16.39-8.34-33.16-13.62-51.2-16.86-17.75-3.19-35.86-4.25-53.81-4.73-8.25-.22-16.49-.32-24.73-.37-9.79-.06-19.58-.05-29.37-.05L554 110h-85l-111.64.4c-9.8 0-19.61 0-29.42.06-8.26.05-16.52.15-24.78.37-18 .48-36.15 1.54-53.94 4.74-18.06 3.23-34.86 8.52-51.26 16.84a172.4 172.4 0 0 0-43.67 31.65 172 172 0 0 0-31.72 43.55c-8.35 16.37-13.65 33.14-16.9 51.16-3.2 17.75-4.25 35.85-4.74 53.8a1184 1184 0 0 0-.37 24.7c-.06 9.8-.56 21.95-.56 31.73v196l.5 112.43c0 9.8 0 19.59.06 29.39.05 8.25.15 16.5.37 24.75.49 17.97 1.55 36.1 4.75 53.88 3.24 18.03 8.54 34.82 16.89 51.2a172.24 172.24 0 0 0 31.72 43.62 172.44 172.44 0 0 0 43.66 31.69c16.41 8.34 33.22 13.63 51.29 16.88 17.79 3.19 35.93 4.25 53.92 4.73 8.26.23 16.52.32 24.78.37 9.8.06 19.61.06 29.42.06h310.28c9.8 0 19.58 0 29.37-.06 8.24-.05 16.48-.14 24.73-.37 17.96-.48 36.08-1.54 53.84-4.74 18.02-3.24 34.79-8.53 51.16-16.87a172 172 0 0 0 43.58-31.69 172.23 172.23 0 0 0 31.66-43.61c8.34-16.4 13.62-33.18 16.86-51.23 3.2-17.77 4.25-35.9 4.74-53.86.22-8.25.31-16.5.36-24.76.06-9.8.06-19.59.06-29.38V365.4v.01z" filter="url(#a)"/>
  <path fill="url(#b)" d="M924 355.41c0-9.78 0-18.35-.06-28.13-.05-8.24-.14-16.48-.36-24.72-.49-17.95-1.55-36.06-4.74-53.81-3.24-18.01-8.53-34.77-16.86-51.13a171.96 171.96 0 0 0-31.66-43.56 172.06 172.06 0 0 0-43.57-31.64c-16.39-8.34-33.16-13.62-51.2-16.86-17.75-3.19-35.86-4.25-53.81-4.73-8.25-.22-16.49-.32-24.73-.37-9.79-.06-19.58-.05-29.37-.05L554 100h-85l-111.64.4c-9.8 0-19.61 0-29.42.06-8.26.05-16.52.15-24.78.37-18 .48-36.15 1.54-53.94 4.73-18.06 3.24-34.86 8.52-51.26 16.85a172.4 172.4 0 0 0-43.67 31.65 172 172 0 0 0-31.72 43.55c-8.35 16.37-13.65 33.14-16.9 51.16-3.2 17.75-4.25 35.85-4.74 53.8a1184 1184 0 0 0-.37 24.7c-.06 9.8-.56 21.95-.56 31.73v196l.5 112.43c0 9.8 0 19.59.06 29.39.05 8.25.15 16.5.37 24.75.49 17.97 1.55 36.1 4.75 53.88 3.24 18.03 8.54 34.82 16.89 51.2a172.24 172.24 0 0 0 31.72 43.62 172.44 172.44 0 0 0 43.66 31.69c16.41 8.34 33.22 13.63 51.29 16.88 17.79 3.19 35.93 4.25 53.92 4.73 8.26.23 16.52.32 24.78.37 9.8.06 19.61.06 29.42.06h310.28c9.8 0 19.58 0 29.37-.06 8.24-.05 16.48-.14 24.73-.37 17.96-.48 36.08-1.54 53.84-4.74 18.02-3.24 34.79-8.53 51.16-16.87a172 172 0 0 0 43.58-31.69 172.23 172.23 0 0 0 31.66-43.61c8.34-16.4 13.62-33.18 16.86-51.23 3.2-17.77 4.25-35.9 4.74-53.86.22-8.25.31-16.5.36-24.76.06-9.8.06-19.59.06-29.38V355.4v.01z"/>
  <path fill="none" stroke="#fff" stroke-linejoin="round" stroke-width="40" d="m351.352 785.7485 318.5971-78.2153 126.891-290.9504-161.9774-178.3414-248.4042 65.702L227.1599 544.831l124.192 240.9277v-.01z"/>
  <path fill="#fff" stroke="#fff" stroke-linecap="round" stroke-linejoin="round" stroke-width="30" d="M448.45 418.0141 615.55 512l-167.1 93.9859V418.014h0z"/>
</svg>